<?xml version="1.0" encoding="UTF-8"?>
<svg id="_Слой_1" data-name="Слой_1" xmlns="http://www.w3.org/2000/svg" version="1.1" viewBox="0 0 595.28 841.89">
  <!-- Generator: Adobe Illustrator 29.6.1, SVG Export Plug-In . SVG Version: 2.1.1 Build 9)  -->
  <defs>
    <style>
      .st0 {
        stroke-width: 6.19px;
      }

      .st0, .st1, .st2, .st3, .st4, .st5 {
        stroke: #010101;
        stroke-miterlimit: 10;
      }

      .st0, .st1, .st3, .st4, .st5 {
        fill: none;
      }

      .st1 {
        stroke-width: 9.63px;
      }

      .st2, .st4 {
        stroke-width: 12.38px;
      }

      .st2, .st6 {
        fill: #010101;
      }

      .st3 {
        stroke-width: 16.51px;
      }

      .st5 {
        stroke-width: 20.04px;
      }
    </style>
  </defs>
  <path class="st6" d="M285.43,524.86l-19.33-18.71c-3.54-3.43-1.11-9.42,3.81-9.42h38.66c4.93,0,7.35,6,3.81,9.42l-19.33,18.71c-2.13,2.06-5.5,2.06-7.63,0Z"/>
  <path class="st4" d="M174.8,378.23c-8.05,8.23-14.87,17.34-20.26,27.14-4.09,7.43-7.34,15.25-9.67,23.38-2.72,9.54-4.17,19.5-4.17,29.75,0,69.54,66.5,125.91,148.53,125.91s148.53-56.37,148.53-125.91c0-62.84-54.31-114.93-125.31-124.38-7.57-1.01-15.32-1.53-23.23-1.53s-15.66.52-23.23,1.53c-16.29,2.17-31.7,6.58-45.77,12.85"/>
  <ellipse class="st5" cx="127.32" cy="345.72" rx="21.88" ry="21.24"/>
  <path class="st3" d="M144.88,428.75c-3.89,2.67-8.63,4.23-13.74,4.23-13.17,0-23.85-10.36-23.85-23.16s10.68-23.16,23.85-23.16c11.61,0,21.28,8.05,23.41,18.71"/>
  <path class="st4" d="M174.8,378.23c12.51-12.8,27.95-23.46,45.44-31.26"/>
  <path class="st2" d="M220.25,346.97c-17.5,7.8-32.94,18.46-45.44,31.26-4.34-4.78-6.96-11.06-6.96-17.93,0-15.01,12.53-27.18,28-27.18,10.47,0,19.61,5.58,24.41,13.85Z"/>
  <path class="st3" d="M422.96,404.16c2.13-10.66,11.8-18.71,23.41-18.71,13.17,0,23.85,10.37,23.85,23.16,0,12.8-10.68,23.16-23.85,23.16-5.12,0-9.86-1.56-13.74-4.23"/>
  <path class="st2" d="M360.01,345.75c17.5,7.8,32.94,18.46,45.44,31.26,4.34-4.78,6.96-11.06,6.96-17.93,0-15.01-12.53-27.18-28-27.18-10.47,0-19.61,5.58-24.41,13.85Z"/>
  <path class="st6" d="M225.53,426.59h-6.07c-9.57,0-18.25,3.86-24.53,10.14-6.25,6.27-10.14,14.93-10.14,24.53,0,19.14,15.51,34.67,34.67,34.67h29.25c6.35,0,11.49-5.16,11.49-11.51v-23.15c0-19.16-15.51-34.67-34.67-34.67ZM228.15,489.49c-13.43,0-24.32-10.89-24.32-24.32s10.89-24.32,24.32-24.32,24.32,10.89,24.32,24.32-10.89,24.32-24.32,24.32Z"/>
  <path class="st1" d="M313.1,326.43c0,12.7-10.77,23.16-23.85,23.16s-23.85-10.45-23.85-23.16,10.77-23.16,23.85-23.16,23.85,10.45,23.85,23.16Z"/>
  <path class="st0" d="M241.92,215.66s-14.53,102.03,45.51,102.06c63.03.03,49.89-102.06,49.89-102.06"/>
  <path class="st6" d="M382.19,436.73c-6.27-6.27-14.96-10.14-24.53-10.14h-6.07c-19.16,0-34.67,15.51-34.67,34.67v23.15c0,6.35,5.13,11.51,11.49,11.51h29.25c19.16,0,34.67-15.53,34.67-34.67,0-9.59-3.89-18.25-10.14-24.53ZM348.87,489.49c-13.43,0-24.32-10.89-24.32-24.32s10.89-24.32,24.32-24.32,24.32,10.89,24.32,24.32-10.89,24.32-24.32,24.32Z"/>
  <ellipse class="st5" cx="451.72" cy="344.34" rx="21.88" ry="21.24"/>
</svg>