<?xml version="1.0" encoding="UTF-8"?>
<svg id="_Слой_1" data-name="Слой_1" xmlns="http://www.w3.org/2000/svg" version="1.1" viewBox="0 0 595.28 841.89">
  <!-- Generator: Adobe Illustrator 29.6.1, SVG Export Plug-In . SVG Version: 2.1.1 Build 9)  -->
  <defs>
    <style>
      .st0 {
        fill: none;
        stroke: #010101;
        stroke-miterlimit: 10;
        stroke-width: 13.02px;
      }

      .st1 {
        opacity: .94;
      }
    </style>
  </defs>
  <path class="st1" d="M42.12,411.7v-37.18c0-1.74.58-3.09,1.75-4.05,1.17-.96,2.6-1.44,4.3-1.44h14.54c5.37,0,9.68,1.36,12.92,4.07,3.24,2.71,4.87,6.32,4.87,10.82,0,3.57-1.09,6.55-3.28,8.94-1.66,1.81-3.8,3.12-6.43,3.95-1.14.36-1.49,1.81-.63,2.65l8.48,8.29c.85.81,1.48,1.58,1.9,2.32.41.74.62,1.54.62,2.39,0,1.11-.45,2.16-1.35,3.14-1.19,1.29-2.81,1.93-4.85,1.93-1.48,0-2.58-.19-3.28-.57-.7-.38-1.52-1.08-2.44-2.11l-12.13-13.86c-.96-1.1-2.77-.43-2.79,1.03l-.1,9.69c0,1.87-.56,3.31-1.68,4.31-1.12,1-2.58,1.5-4.37,1.5s-3.32-.49-4.41-1.47c-1.09-.98-1.64-2.43-1.64-4.34ZM54.22,388.15c0,.88.71,1.59,1.59,1.59h6.39c1.94,0,3.46-.51,4.56-1.54,1.09-1.02,1.64-2.32,1.64-3.89s-.58-2.83-1.75-3.77c-1.17-.95-2.65-1.42-4.45-1.42h-6.39c-.88,0-1.59.71-1.59,1.59v7.44Z"/>
  <path class="st1" d="M139.35,393.06c0-7.36,2.41-13.37,7.23-18.05,4.82-4.68,11.19-7.02,19.12-7.02,4.37,0,7.96.53,10.75,1.6,3.52,1.33,5.29,3.33,5.29,6.01,0,1.37-.48,2.58-1.44,3.64-.96,1.06-2.22,1.58-3.78,1.58-.49,0-2.43-.51-5.84-1.53-1.8-.54-3.37-.82-4.71-.82-4.57,0-8.05,1.49-10.44,4.47-2.14,2.68-3.21,6.05-3.21,10.12s1.11,7.43,3.32,10.15c2.21,2.72,5.32,4.08,9.31,4.08,2.48,0,4.6-.25,6.37-.73,1.69-.47,3.44-.96,5.25-1.48.16-.05.34-.07.5-.07,1.96.05,3.37.73,4.23,2.02.61.89.91,1.92.91,3.07,0,2.72-1.94,4.81-5.83,6.27-3.18,1.2-6.81,1.81-10.9,1.83-8.12,0-14.55-2.46-19.32-7.38-4.52-4.64-6.79-10.56-6.81-17.76Z"/>
  <path class="st1" d="M184.37,410.51s.02-.09.04-.14c.23-.91.71-2.28,1.44-4.11l11.66-28.38c1.39-3.44,2.58-5.75,3.57-6.95,1.65-1.96,3.81-2.94,6.49-2.94,2.19,0,4,.58,5.45,1.73,1.45,1.15,3.04,3.87,4.79,8.16l11.63,28.38c.8,1.91,1.3,3.29,1.5,4.14.19.85.29,1.72.29,2.61,0,1.38-.52,2.48-1.56,3.29-1.04.81-2.45,1.22-4.21,1.22s-3.26-.49-4.25-1.48c-.8-.77-1.49-2.07-2.07-3.91l-1.12-3.24c-.22-.64-.82-1.07-1.5-1.07h-17.62c-.68,0-1.28.43-1.5,1.07l-1.12,3.24c-.66,1.8-1.35,3.08-2.08,3.85-1,1.03-2.42,1.54-4.27,1.54-.03,0-.05,0-.08,0-3.61-.03-6.29-3.49-5.44-7ZM203.64,397.73h8.16c1.09,0,1.86-1.07,1.5-2.1l-3.87-11.32c-.48-1.41-2.46-1.44-2.99-.05l-4.29,11.32c-.39,1.04.37,2.15,1.49,2.15Z"/>
  <path class="st1" d="M235.67,411.7v-37.25c0-1.87.56-3.31,1.68-4.31s2.58-1.5,4.37-1.5,3.32.49,4.41,1.47c1.09.98,1.64,2.43,1.64,4.34v37.25c0,1.87-.56,3.31-1.69,4.31s-2.58,1.5-4.36,1.5-3.32-.49-4.41-1.47-1.64-2.43-1.64-4.34Z"/>
  <path class="st1" d="M254.21,411.64v-37.18c0-1.87.56-3.31,1.69-4.31s2.58-1.5,4.36-1.5,3.32.49,4.41,1.47c1.09.98,1.64,2.43,1.64,4.35v30.98c0,.88.71,1.59,1.59,1.59h11.42c1.94,0,3.44.44,4.48,1.33s1.57,2.12,1.57,3.7-.54,2.79-1.62,3.7c-1.08.91-2.56,1.36-4.43,1.36h-19.06c-1.65,0-3.07-.49-4.26-1.47-1.19-.98-1.79-2.32-1.79-4.02Z"/>
  <path class="st1" d="M289.71,411.64v-37.18c0-1.87.56-3.31,1.69-4.31s2.58-1.5,4.36-1.5,3.32.49,4.41,1.47c1.09.98,1.64,2.43,1.64,4.35v30.98c0,.88.71,1.59,1.59,1.59h11.42c1.94,0,3.44.44,4.48,1.33,1.04.89,1.57,2.12,1.57,3.7s-.54,2.79-1.62,3.7c-1.08.91-2.56,1.36-4.43,1.36h-19.06c-1.65,0-3.07-.49-4.26-1.47-1.19-.98-1.79-2.32-1.79-4.02Z"/>
  <path class="st1" d="M324.4,411.64v-37.12c0-1.74.58-3.09,1.75-4.05,1.17-.96,2.6-1.44,4.3-1.44h18.51c1.94,0,3.44.45,4.48,1.33,1.04.89,1.57,2.14,1.57,3.74s-.52,2.79-1.57,3.68c-1.05.89-2.54,1.33-4.48,1.33h-10.87c-.88,0-1.59.71-1.59,1.59v5.6c0,.88.71,1.59,1.59,1.59h9.82c1.89,0,3.38.45,4.45,1.34,1.07.89,1.6,2.12,1.6,3.69,0,3.37-1.99,5.06-5.98,5.06h-9.89c-.88,0-1.59.71-1.59,1.59v5.86c0,.88.71,1.59,1.59,1.59h11.31c1.94,0,3.44.44,4.48,1.33s1.57,2.12,1.57,3.7-.53,2.79-1.6,3.7c-1.07.91-2.55,1.36-4.45,1.36h-18.95c-1.65,0-3.07-.49-4.26-1.47-1.19-.98-1.79-2.32-1.79-4.02Z"/>
  <path class="st1" d="M361.03,412.68c0-1.47.63-2.76,1.89-3.88s2.79-1.67,4.59-1.67,3.27.55,4.56,1.64c1.29,1.09,1.93,2.4,1.93,3.91s-.64,2.81-1.93,3.89c-1.29,1.08-2.81,1.62-4.56,1.62s-3.33-.54-4.59-1.61-1.89-2.38-1.89-3.91Z"/>
  <path class="st1" d="M378.73,410.3c0-1.61.5-2.98,1.49-4.11,1-1.13,2.39-1.7,4.19-1.7.7,0,2.47.47,5.3,1.4,2.83.94,5.41,1.4,7.74,1.4,2.14,0,3.75-.45,4.83-1.34,1.08-.89,1.62-1.96,1.62-3.2,0-1.87-1.6-3.34-4.81-4.41-.61-.22-2.84-.89-6.71-2.02-5.18-1.48-8.6-3.23-10.26-5.26-1.66-2.02-2.5-4.59-2.5-7.7,0-4.98,1.92-8.87,5.76-11.65,3.45-2.48,7.85-3.72,13.19-3.72h.15c4.79,0,8.5.66,11.13,1.97,2.64,1.32,3.95,3.06,3.95,5.24,0,1.48-.5,2.71-1.49,3.69s-2.3,1.47-3.9,1.47c-.95,0-2.88-.4-5.79-1.21-1.65-.44-3.15-.66-4.48-.69-1.65,0-2.99.37-4.01,1.11-1.02.74-1.53,1.69-1.53,2.84,0,1.37,1.37,2.49,4.12,3.36,2.74.87,5.16,1.62,7.25,2.25,3.98,1.15,6.94,2.6,8.86,4.34,2.7,2.37,4.05,5.63,4.05,9.76,0,5.31-1.97,9.37-5.9,12.18-3.64,2.59-8.44,3.88-14.4,3.88-4.28,0-8.14-.63-11.59-1.89-4.18-1.52-6.27-3.53-6.27-6.01Z"/>
  <path class="st1" d="M421.59,411.7v-37.25c0-1.87.56-3.31,1.68-4.31,1.12-1,2.58-1.5,4.37-1.5s3.32.49,4.41,1.47c1.09.98,1.64,2.43,1.64,4.34v11.4c0,.88.71,1.59,1.59,1.59h19.34c.88,0,1.59-.71,1.59-1.59v-11.4c0-1.87.56-3.31,1.68-4.31,1.12-1,2.58-1.5,4.37-1.5s3.32.49,4.41,1.47c1.09.98,1.64,2.43,1.64,4.34v37.25c0,1.87-.56,3.31-1.68,4.31-1.12,1-2.58,1.5-4.37,1.5s-3.32-.49-4.41-1.47-1.64-2.43-1.64-4.34v-12.58c0-.88-.71-1.59-1.59-1.59h-19.34c-.88,0-1.59.71-1.59,1.59v12.58c0,1.87-.56,3.31-1.69,4.31s-2.58,1.5-4.36,1.5-3.32-.49-4.41-1.47c-1.09-.98-1.64-2.43-1.64-4.34Z"/>
  <path class="st1" d="M529.52,411.7v-37.18c0-1.74.58-3.09,1.75-4.05,1.17-.96,2.6-1.44,4.3-1.44h14.83c5.03,0,9.23,1.36,12.61,4.08,3.74,2.98,5.61,7.06,5.61,12.24,0,4.83-1.56,8.75-4.67,11.75s-7.5,4.5-13.16,4.5h-7.59c-.88,0-1.59.71-1.59,1.59v8.47c0,1.88-.56,3.32-1.68,4.33-1.12,1.01-2.58,1.51-4.37,1.51s-3.32-.49-4.41-1.47c-1.09-.98-1.64-2.43-1.64-4.34ZM541.62,390.33c0,.88.71,1.59,1.59,1.59h4.9c2.43,0,4.37-.65,5.81-1.94,1.45-1.3,2.17-2.83,2.17-4.62,0-2.09-.72-3.72-2.17-4.88-1.45-1.16-3.38-1.75-5.81-1.75h-4.9c-.88,0-1.59.71-1.59,1.59v10.01Z"/>
  <ellipse class="st0" cx="110.1" cy="393.09" rx="19.36" ry="18.79"/>
  <ellipse class="st0" cx="499.14" cy="392.88" rx="19.36" ry="18.79"/>
</svg>